<mxfile host="app.diagrams.net" agent="Mozilla/5.0 (Windows NT 10.0; Win64; x64) AppleWebKit/537.36 (KHTML, like Gecko) Chrome/109.0.0.0 Safari/537.36" version="24.7.7">
  <diagram name="第 1 页" id="YF17Z-yKxjHTU1-T2zRs">
    <mxGraphModel dx="1050" dy="548" grid="1" gridSize="10" guides="1" tooltips="1" connect="1" arrows="1" fold="1" page="1" pageScale="1" pageWidth="827" pageHeight="1169" math="0" shadow="0">
      <root>
        <mxCell id="0" />
        <mxCell id="1" parent="0" />
        <mxCell id="l1LP222e5UurpEyV5bX6-7" value="" style="edgeStyle=orthogonalEdgeStyle;rounded=0;orthogonalLoop=1;jettySize=auto;html=1;" parent="1" source="l1LP222e5UurpEyV5bX6-1" target="l1LP222e5UurpEyV5bX6-6" edge="1">
          <mxGeometry relative="1" as="geometry" />
        </mxCell>
        <mxCell id="l1LP222e5UurpEyV5bX6-1" value="routing decision" style="rounded=1;whiteSpace=wrap;html=1;" parent="1" vertex="1">
          <mxGeometry x="639.5" y="80" width="79.5" height="40" as="geometry" />
        </mxCell>
        <mxCell id="l1LP222e5UurpEyV5bX6-13" value="" style="edgeStyle=orthogonalEdgeStyle;rounded=0;orthogonalLoop=1;jettySize=auto;html=1;" parent="1" source="l1LP222e5UurpEyV5bX6-6" target="l1LP222e5UurpEyV5bX6-12" edge="1">
          <mxGeometry relative="1" as="geometry" />
        </mxCell>
        <mxCell id="l1LP222e5UurpEyV5bX6-6" value="raw" style="rounded=0;whiteSpace=wrap;html=1;" parent="1" vertex="1">
          <mxGeometry x="639.5" y="160" width="80" height="40" as="geometry" />
        </mxCell>
        <mxCell id="l1LP222e5UurpEyV5bX6-15" value="" style="edgeStyle=orthogonalEdgeStyle;rounded=0;orthogonalLoop=1;jettySize=auto;html=1;" parent="1" source="l1LP222e5UurpEyV5bX6-12" target="l1LP222e5UurpEyV5bX6-14" edge="1">
          <mxGeometry relative="1" as="geometry" />
        </mxCell>
        <mxCell id="l1LP222e5UurpEyV5bX6-12" value="conntrack" style="rounded=1;whiteSpace=wrap;html=1;glass=0;shadow=0;" parent="1" vertex="1">
          <mxGeometry x="759.5" y="160" width="80" height="40" as="geometry" />
        </mxCell>
        <mxCell id="l1LP222e5UurpEyV5bX6-23" value="" style="edgeStyle=orthogonalEdgeStyle;rounded=0;orthogonalLoop=1;jettySize=auto;html=1;entryX=0.25;entryY=1;entryDx=0;entryDy=0;dashed=1;exitX=0.75;exitY=0;exitDx=0;exitDy=0;" parent="1" source="l1LP222e5UurpEyV5bX6-14" target="l1LP222e5UurpEyV5bX6-22" edge="1">
          <mxGeometry relative="1" as="geometry" />
        </mxCell>
        <mxCell id="H4z6vKvl7tdsl-_7wx1U-1" value="" style="edgeStyle=orthogonalEdgeStyle;rounded=0;orthogonalLoop=1;jettySize=auto;html=1;" edge="1" parent="1" source="l1LP222e5UurpEyV5bX6-14" target="l1LP222e5UurpEyV5bX6-16">
          <mxGeometry relative="1" as="geometry" />
        </mxCell>
        <mxCell id="l1LP222e5UurpEyV5bX6-14" value="mangle" style="rounded=0;whiteSpace=wrap;html=1;" parent="1" vertex="1">
          <mxGeometry x="879.5" y="160" width="80" height="40" as="geometry" />
        </mxCell>
        <mxCell id="l1LP222e5UurpEyV5bX6-26" value="" style="edgeStyle=orthogonalEdgeStyle;rounded=0;orthogonalLoop=1;jettySize=auto;html=1;exitX=0.75;exitY=0;exitDx=0;exitDy=0;entryX=0.25;entryY=1;entryDx=0;entryDy=0;dashed=1;" parent="1" source="l1LP222e5UurpEyV5bX6-16" target="l1LP222e5UurpEyV5bX6-25" edge="1">
          <mxGeometry relative="1" as="geometry">
            <mxPoint x="1109.5" y="160" as="sourcePoint" />
            <Array as="points">
              <mxPoint x="1060.5" y="140" />
              <mxPoint x="1079.5" y="140" />
            </Array>
          </mxGeometry>
        </mxCell>
        <mxCell id="H4z6vKvl7tdsl-_7wx1U-3" value="" style="edgeStyle=orthogonalEdgeStyle;rounded=0;orthogonalLoop=1;jettySize=auto;html=1;" edge="1" parent="1" source="l1LP222e5UurpEyV5bX6-16" target="l1LP222e5UurpEyV5bX6-18">
          <mxGeometry relative="1" as="geometry" />
        </mxCell>
        <mxCell id="l1LP222e5UurpEyV5bX6-16" value="nat&lt;div&gt;（DNAT）&lt;/div&gt;" style="rounded=0;whiteSpace=wrap;html=1;" parent="1" vertex="1">
          <mxGeometry x="1000" y="160" width="80" height="40" as="geometry" />
        </mxCell>
        <mxCell id="l1LP222e5UurpEyV5bX6-21" value="" style="edgeStyle=orthogonalEdgeStyle;rounded=0;orthogonalLoop=1;jettySize=auto;html=1;" parent="1" source="l1LP222e5UurpEyV5bX6-18" target="l1LP222e5UurpEyV5bX6-20" edge="1">
          <mxGeometry relative="1" as="geometry" />
        </mxCell>
        <mxCell id="l1LP222e5UurpEyV5bX6-18" value="filter" style="rounded=0;whiteSpace=wrap;html=1;" parent="1" vertex="1">
          <mxGeometry x="1121" y="160" width="80" height="40" as="geometry" />
        </mxCell>
        <mxCell id="l1LP222e5UurpEyV5bX6-29" value="" style="edgeStyle=orthogonalEdgeStyle;rounded=0;orthogonalLoop=1;jettySize=auto;html=1;" parent="1" source="l1LP222e5UurpEyV5bX6-20" target="l1LP222e5UurpEyV5bX6-28" edge="1">
          <mxGeometry relative="1" as="geometry" />
        </mxCell>
        <mxCell id="l1LP222e5UurpEyV5bX6-20" value="security" style="rounded=0;whiteSpace=wrap;html=1;" parent="1" vertex="1">
          <mxGeometry x="1241" y="160" width="80" height="40" as="geometry" />
        </mxCell>
        <mxCell id="l1LP222e5UurpEyV5bX6-24" value="" style="edgeStyle=orthogonalEdgeStyle;rounded=0;orthogonalLoop=1;jettySize=auto;html=1;exitX=0.75;exitY=1;exitDx=0;exitDy=0;entryX=0.25;entryY=0;entryDx=0;entryDy=0;dashed=1;" parent="1" source="l1LP222e5UurpEyV5bX6-22" target="l1LP222e5UurpEyV5bX6-16" edge="1">
          <mxGeometry relative="1" as="geometry">
            <mxPoint x="999.5" y="140" as="sourcePoint" />
            <Array as="points">
              <mxPoint x="1000.5" y="140" />
              <mxPoint x="1020.5" y="140" />
            </Array>
          </mxGeometry>
        </mxCell>
        <mxCell id="l1LP222e5UurpEyV5bX6-22" value="reroute" style="rounded=1;whiteSpace=wrap;html=1;" parent="1" vertex="1">
          <mxGeometry x="940" y="80" width="80" height="40" as="geometry" />
        </mxCell>
        <mxCell id="l1LP222e5UurpEyV5bX6-27" value="" style="edgeStyle=orthogonalEdgeStyle;rounded=0;orthogonalLoop=1;jettySize=auto;html=1;exitX=0.75;exitY=1;exitDx=0;exitDy=0;dashed=1;entryX=0.25;entryY=0;entryDx=0;entryDy=0;" parent="1" source="l1LP222e5UurpEyV5bX6-25" target="l1LP222e5UurpEyV5bX6-18" edge="1">
          <mxGeometry relative="1" as="geometry">
            <Array as="points">
              <mxPoint x="1120" y="140" />
              <mxPoint x="1141" y="140" />
            </Array>
          </mxGeometry>
        </mxCell>
        <mxCell id="l1LP222e5UurpEyV5bX6-25" value="reroute" style="rounded=1;whiteSpace=wrap;html=1;fillColor=#f8cecc;strokeColor=#b85450;" parent="1" vertex="1">
          <mxGeometry x="1059.5" y="80" width="80" height="40" as="geometry" />
        </mxCell>
        <mxCell id="l1LP222e5UurpEyV5bX6-31" value="" style="edgeStyle=orthogonalEdgeStyle;rounded=0;orthogonalLoop=1;jettySize=auto;html=1;" parent="1" source="l1LP222e5UurpEyV5bX6-28" target="l1LP222e5UurpEyV5bX6-30" edge="1">
          <mxGeometry relative="1" as="geometry" />
        </mxCell>
        <mxCell id="l1LP222e5UurpEyV5bX6-28" value="mangle" style="rounded=0;whiteSpace=wrap;html=1;" parent="1" vertex="1">
          <mxGeometry x="1241" y="240" width="80" height="40" as="geometry" />
        </mxCell>
        <mxCell id="l1LP222e5UurpEyV5bX6-33" value="" style="edgeStyle=orthogonalEdgeStyle;rounded=0;orthogonalLoop=1;jettySize=auto;html=1;" parent="1" source="l1LP222e5UurpEyV5bX6-30" target="l1LP222e5UurpEyV5bX6-32" edge="1">
          <mxGeometry relative="1" as="geometry" />
        </mxCell>
        <mxCell id="l1LP222e5UurpEyV5bX6-30" value="nat&lt;div&gt;（SNAT）&lt;/div&gt;" style="rounded=0;whiteSpace=wrap;html=1;" parent="1" vertex="1">
          <mxGeometry x="1121" y="240" width="80" height="40" as="geometry" />
        </mxCell>
        <mxCell id="l1LP222e5UurpEyV5bX6-35" value="" style="edgeStyle=orthogonalEdgeStyle;rounded=0;orthogonalLoop=1;jettySize=auto;html=1;" parent="1" source="l1LP222e5UurpEyV5bX6-32" target="l1LP222e5UurpEyV5bX6-34" edge="1">
          <mxGeometry relative="1" as="geometry">
            <Array as="points">
              <mxPoint x="1041" y="340" />
            </Array>
          </mxGeometry>
        </mxCell>
        <mxCell id="l1LP222e5UurpEyV5bX6-32" value="conntrack" style="rounded=1;whiteSpace=wrap;html=1;glass=0;shadow=0;" parent="1" vertex="1">
          <mxGeometry x="1000.5" y="240" width="80" height="40" as="geometry" />
        </mxCell>
        <mxCell id="l1LP222e5UurpEyV5bX6-37" value="" style="edgeStyle=orthogonalEdgeStyle;rounded=0;orthogonalLoop=1;jettySize=auto;html=1;" parent="1" source="l1LP222e5UurpEyV5bX6-34" target="l1LP222e5UurpEyV5bX6-36" edge="1">
          <mxGeometry relative="1" as="geometry" />
        </mxCell>
        <mxCell id="l1LP222e5UurpEyV5bX6-34" value="gso" style="rounded=1;whiteSpace=wrap;html=1;glass=0;shadow=0;" parent="1" vertex="1">
          <mxGeometry x="880.5" y="320" width="80" height="40" as="geometry" />
        </mxCell>
        <mxCell id="l1LP222e5UurpEyV5bX6-39" value="" style="edgeStyle=orthogonalEdgeStyle;rounded=0;orthogonalLoop=1;jettySize=auto;html=1;" parent="1" source="l1LP222e5UurpEyV5bX6-36" target="l1LP222e5UurpEyV5bX6-38" edge="1">
          <mxGeometry relative="1" as="geometry" />
        </mxCell>
        <mxCell id="l1LP222e5UurpEyV5bX6-36" value="egress" style="rounded=1;whiteSpace=wrap;html=1;glass=0;shadow=0;" parent="1" vertex="1">
          <mxGeometry x="760.5" y="320" width="80" height="40" as="geometry" />
        </mxCell>
        <mxCell id="l1LP222e5UurpEyV5bX6-43" value="" style="edgeStyle=orthogonalEdgeStyle;rounded=0;orthogonalLoop=1;jettySize=auto;html=1;" parent="1" source="l1LP222e5UurpEyV5bX6-38" target="l1LP222e5UurpEyV5bX6-42" edge="1">
          <mxGeometry relative="1" as="geometry" />
        </mxCell>
        <mxCell id="l1LP222e5UurpEyV5bX6-38" value="tcpdump" style="rounded=1;whiteSpace=wrap;html=1;glass=0;shadow=0;" parent="1" vertex="1">
          <mxGeometry x="640.5" y="320" width="80" height="40" as="geometry" />
        </mxCell>
        <mxCell id="l1LP222e5UurpEyV5bX6-45" value="" style="edgeStyle=orthogonalEdgeStyle;rounded=0;orthogonalLoop=1;jettySize=auto;html=1;" parent="1" source="l1LP222e5UurpEyV5bX6-42" target="l1LP222e5UurpEyV5bX6-44" edge="1">
          <mxGeometry relative="1" as="geometry" />
        </mxCell>
        <mxCell id="l1LP222e5UurpEyV5bX6-42" value="eth0" style="shape=process;whiteSpace=wrap;html=1;backgroundOutline=1;" parent="1" vertex="1">
          <mxGeometry x="640.5" y="400" width="79" height="40" as="geometry" />
        </mxCell>
        <mxCell id="l1LP222e5UurpEyV5bX6-48" value="" style="edgeStyle=orthogonalEdgeStyle;rounded=0;orthogonalLoop=1;jettySize=auto;html=1;" parent="1" source="l1LP222e5UurpEyV5bX6-44" target="l1LP222e5UurpEyV5bX6-47" edge="1">
          <mxGeometry relative="1" as="geometry" />
        </mxCell>
        <mxCell id="l1LP222e5UurpEyV5bX6-44" value="lxc" style="shape=process;whiteSpace=wrap;html=1;backgroundOutline=1;" parent="1" vertex="1">
          <mxGeometry x="640.5" y="480" width="79" height="40" as="geometry" />
        </mxCell>
        <mxCell id="l1LP222e5UurpEyV5bX6-46" value="" style="endArrow=none;dashed=1;html=1;rounded=0;" parent="1" edge="1">
          <mxGeometry width="50" height="50" relative="1" as="geometry">
            <mxPoint x="120" y="460" as="sourcePoint" />
            <mxPoint x="1360" y="460" as="targetPoint" />
          </mxGeometry>
        </mxCell>
        <mxCell id="l1LP222e5UurpEyV5bX6-50" value="" style="edgeStyle=orthogonalEdgeStyle;rounded=0;orthogonalLoop=1;jettySize=auto;html=1;" parent="1" source="l1LP222e5UurpEyV5bX6-47" target="l1LP222e5UurpEyV5bX6-49" edge="1">
          <mxGeometry relative="1" as="geometry" />
        </mxCell>
        <mxCell id="l1LP222e5UurpEyV5bX6-47" value="tcpdump" style="rounded=1;whiteSpace=wrap;html=1;glass=0;shadow=0;" parent="1" vertex="1">
          <mxGeometry x="639.5" y="560" width="80" height="40" as="geometry" />
        </mxCell>
        <mxCell id="l1LP222e5UurpEyV5bX6-60" value="" style="edgeStyle=orthogonalEdgeStyle;rounded=0;orthogonalLoop=1;jettySize=auto;html=1;" parent="1" source="l1LP222e5UurpEyV5bX6-49" target="l1LP222e5UurpEyV5bX6-52" edge="1">
          <mxGeometry relative="1" as="geometry" />
        </mxCell>
        <mxCell id="l1LP222e5UurpEyV5bX6-49" value="ingress" style="rounded=1;whiteSpace=wrap;html=1;glass=0;shadow=0;" parent="1" vertex="1">
          <mxGeometry x="760.5" y="560" width="80" height="40" as="geometry" />
        </mxCell>
        <mxCell id="l1LP222e5UurpEyV5bX6-51" value="" style="edgeStyle=orthogonalEdgeStyle;rounded=0;orthogonalLoop=1;jettySize=auto;html=1;" parent="1" source="l1LP222e5UurpEyV5bX6-52" target="l1LP222e5UurpEyV5bX6-54" edge="1">
          <mxGeometry relative="1" as="geometry" />
        </mxCell>
        <mxCell id="l1LP222e5UurpEyV5bX6-52" value="raw" style="rounded=0;whiteSpace=wrap;html=1;" parent="1" vertex="1">
          <mxGeometry x="760.5" y="640" width="80" height="40" as="geometry" />
        </mxCell>
        <mxCell id="l1LP222e5UurpEyV5bX6-53" value="" style="edgeStyle=orthogonalEdgeStyle;rounded=0;orthogonalLoop=1;jettySize=auto;html=1;" parent="1" source="l1LP222e5UurpEyV5bX6-54" target="l1LP222e5UurpEyV5bX6-56" edge="1">
          <mxGeometry relative="1" as="geometry" />
        </mxCell>
        <mxCell id="l1LP222e5UurpEyV5bX6-54" value="conntrack" style="rounded=1;whiteSpace=wrap;html=1;glass=0;shadow=0;" parent="1" vertex="1">
          <mxGeometry x="880.5" y="640" width="80" height="40" as="geometry" />
        </mxCell>
        <mxCell id="l1LP222e5UurpEyV5bX6-61" value="" style="edgeStyle=orthogonalEdgeStyle;rounded=0;orthogonalLoop=1;jettySize=auto;html=1;" parent="1" source="l1LP222e5UurpEyV5bX6-56" target="l1LP222e5UurpEyV5bX6-57" edge="1">
          <mxGeometry relative="1" as="geometry" />
        </mxCell>
        <mxCell id="l1LP222e5UurpEyV5bX6-56" value="mangle" style="rounded=0;whiteSpace=wrap;html=1;" parent="1" vertex="1">
          <mxGeometry x="1000.5" y="640" width="80" height="40" as="geometry" />
        </mxCell>
        <mxCell id="l1LP222e5UurpEyV5bX6-63" value="" style="edgeStyle=orthogonalEdgeStyle;rounded=0;orthogonalLoop=1;jettySize=auto;html=1;" parent="1" source="l1LP222e5UurpEyV5bX6-57" target="l1LP222e5UurpEyV5bX6-62" edge="1">
          <mxGeometry relative="1" as="geometry" />
        </mxCell>
        <mxCell id="l1LP222e5UurpEyV5bX6-57" value="nat&lt;div&gt;（SNAT）&lt;/div&gt;" style="rounded=0;whiteSpace=wrap;html=1;" parent="1" vertex="1">
          <mxGeometry x="1121" y="640" width="80" height="40" as="geometry" />
        </mxCell>
        <mxCell id="l1LP222e5UurpEyV5bX6-62" value="routing decision" style="rounded=1;whiteSpace=wrap;html=1;" parent="1" vertex="1">
          <mxGeometry x="1121" y="720" width="79.5" height="40" as="geometry" />
        </mxCell>
      </root>
    </mxGraphModel>
  </diagram>
</mxfile>
